<?xml version="1.0" encoding="iso-8859-1"?>
<!-- Generator: Adobe Illustrator 19.0.0, SVG Export Plug-In . SVG Version: 6.00 Build 0)  -->
<svg version="1.1" id="Layer_1" xmlns="http://www.w3.org/2000/svg" xmlns:xlink="http://www.w3.org/1999/xlink" x="0px" y="0px"
	 viewBox="0 0 504 504" style="enable-background:new 0 0 504 504;" xml:space="preserve">
<path style="fill:#F4EFEF;" d="M75,454.4c0,24,16.8,43.6,40.4,43.6h20h272.8c24,0,42.8-19.6,42.8-43.6V45.2
	c0-24-18.8-43.2-42.8-43.2H135.4h-20C91.4,2,75,21.6,75,45.2V454.4z"/>
<path style="fill:#33A5D2;" d="M135,498h-19.6c-24,0-40.4-19.6-40.4-43.6V45.2C75,21.2,91.8,2,115.4,2H135V498z"/>
<path d="M409.4,504H116.2c-26,0-47.6-21.2-47.6-47.6V47.6c0-26,21.2-47.6,47.6-47.6h293.2c26,0,47.6,21.2,47.6,47.6v409.2
	C457,482.8,435.8,504,409.4,504z M116.6,8C95,8,77,25.6,77,47.6v409.2c0,21.6,17.6,39.6,39.6,39.6h293.2c21.6,0,39.6-17.6,39.6-39.6
	h4h-4V47.6C449.4,26,431.8,8,409.8,8L116.6,8L116.6,8z"/>
<path d="M133,498c-2.4,0-4-1.6-4-4V86c0-2.4,1.6-4,4-4s4,1.6,4,4v408C137,496.4,135.4,498,133,498z"/>
<path d="M133,42c-2.4,0-4-1.6-4-4V6c0-2.4,1.6-4,4-4s4,1.6,4,4v32C137,40.4,135.4,42,133,42z"/>
<path d="M91,436H51c-2.4,0-4-1.6-4-4s1.6-4,4-4h40c2.4,0,4,1.6,4,4S93.4,436,91,436z"/>
<path d="M91,376H51c-2.4,0-4-1.6-4-4s1.6-4,4-4h40c2.4,0,4,1.6,4,4S93.4,376,91,376z"/>
<path d="M91,316H51c-2.4,0-4-1.6-4-4s1.6-4,4-4h40c2.4,0,4,1.6,4,4S93.4,316,91,316z"/>
<path d="M91,256H51c-2.4,0-4-1.6-4-4s1.6-4,4-4h40c2.4,0,4,1.6,4,4S93.4,256,91,256z"/>
<path d="M91,196H51c-2.4,0-4-1.6-4-4s1.6-4,4-4h40c2.4,0,4,1.6,4,4S93.4,196,91,196z"/>
<path d="M91,136H51c-2.4,0-4-1.6-4-4s1.6-4,4-4h40c2.4,0,4,1.6,4,4S93.4,136,91,136z"/>
<path d="M91,76H51c-2.4,0-4-1.6-4-4s1.6-4,4-4h40c2.4,0,4,1.6,4,4S93.4,76,91,76z"/>
<path d="M411,116H191c-2.4,0-4-1.6-4-4s1.6-4,4-4h220c2.4,0,4,1.6,4,4S413.4,116,411,116z"/>
<path d="M239,156h-48c-2.4,0-4-1.6-4-4s1.6-4,4-4h48c2.4,0,4,1.6,4,4S241.4,156,239,156z"/>
<path d="M411,156H275c-2.4,0-4-1.6-4-4s1.6-4,4-4h136c2.4,0,4,1.6,4,4S413.4,156,411,156z"/>
<path d="M411,196h-64c-2.4,0-4-1.6-4-4s1.6-4,4-4h64c2.4,0,4,1.6,4,4S413.4,196,411,196z"/>
<path d="M311,196H191c-2.4,0-4-1.6-4-4s1.6-4,4-4h120c2.4,0,4,1.6,4,4S313.4,196,311,196z"/>
<path d="M411,236H191c-2.4,0-4-1.6-4-4s1.6-4,4-4h220c2.4,0,4,1.6,4,4S413.4,236,411,236z"/>
<path d="M411,356H191c-2.4,0-4-1.6-4-4s1.6-4,4-4h220c2.4,0,4,1.6,4,4S413.4,356,411,356z"/>
<path d="M239,276h-48c-2.4,0-4-1.6-4-4s1.6-4,4-4h48c2.4,0,4,1.6,4,4S241.4,276,239,276z"/>
<path d="M411,276H275c-2.4,0-4-1.6-4-4s1.6-4,4-4h136c2.4,0,4,1.6,4,4S413.4,276,411,276z"/>
<path d="M411,316h-64c-2.4,0-4-1.6-4-4s1.6-4,4-4h64c2.4,0,4,1.6,4,4S413.4,316,411,316z"/>
<path d="M311,316H191c-2.4,0-4-1.6-4-4s1.6-4,4-4h120c2.4,0,4,1.6,4,4S313.4,316,311,316z"/>
<path d="M239,396h-48c-2.4,0-4-1.6-4-4s1.6-4,4-4h48c2.4,0,4,1.6,4,4S241.4,396,239,396z"/>
<path d="M411,396H275c-2.4,0-4-1.6-4-4s1.6-4,4-4h136c2.4,0,4,1.6,4,4S413.4,396,411,396z"/>
<g>
</g>
<g>
</g>
<g>
</g>
<g>
</g>
<g>
</g>
<g>
</g>
<g>
</g>
<g>
</g>
<g>
</g>
<g>
</g>
<g>
</g>
<g>
</g>
<g>
</g>
<g>
</g>
<g>
</g>
</svg>
